<svg xmlns="http://www.w3.org/2000/svg" viewBox="0 0 63.23 55.8"><defs><style>.cls-1{fill:none;stroke:#010101;stroke-miterlimit:10;stroke-width:2px;}</style></defs><title>Asset 4</title><g id="Layer_2" data-name="Layer 2"><g id="Icon_2" data-name="Icon 2"><path id="cloud" class="cls-1" d="M12.62,37.14h44s12.66-6.51,0-15.9c0,0-3.34-15.45-15.92-17.5,0,0-9.87-2.39-17.81,4,0,0-5.18,4.58-6.23,10.45,0,0-9.78.05-10,7C6.65,25.1,2.81,32.77,12.62,37.14Z"/><path id="sun" class="cls-1" d="M24.27,6.67l-1-1.3C21.85,3.05,16.8,1.54,16.8,1.54A11.7,11.7,0,0,0,4.24,5.18c-8,11,1.4,18.34,1.4,18.34l1.08.82"/><path id="rain" class="cls-1" d="M48.93,40.14l1.5.71L42.35,54.52l-1.67-.75ZM8.24,53.77l1.67.75L18,40.85l-1.5-.71Zm11.16,0,1.67.75,8.08-13.67-1.5-.71Zm11.2,0,1.66.75,8.09-13.67-1.5-.71Z"/></g></g></svg>