<svg xmlns="http://www.w3.org/2000/svg" viewBox="0 0 64 46"><defs><style>.cls-1{fill:none;stroke:#010101;stroke-miterlimit:10;stroke-width:2px;}</style></defs><title>Asset 9</title><g id="Layer_2" data-name="Layer 2"><g id="clouddy_sun" data-name="clouddy sun"><g id="cloudy_sun"><path class="cls-1" d="M56,45a6.62,6.62,0,0,0,7-7c0-4.19-2.81-9-7-9,0-10.48-9.53-18-20-18-9.27,0-17.35,6.21-19,15H15c-5.24,0-9,4.76-9,10a8.68,8.68,0,0,0,9,9Z"/><path class="cls-1" d="M30,11.75A13,13,0,0,0,9,22a9.78,9.78,0,0,0,2,6"/><line class="cls-1" x1="6" y1="22" y2="22"/><line class="cls-1" x1="22" y1="6" x2="22"/><line class="cls-1" x1="10" y1="10" x2="4" y2="4"/></g></g></g></svg>